<svg width="22" height="20" viewBox="0 0 22 20" fill="none" xmlns="http://www.w3.org/2000/svg">
<path d="M10 20C8.61667 20 7.31667 19.7375 6.1 19.2125C4.88333 18.6875 3.825 17.975 2.925 17.075C2.025 16.175 1.3125 15.1167 0.7875 13.9C0.2625 12.6833 0 11.3833 0 10C0 8.61667 0.2625 7.31667 0.7875 6.1C1.3125 4.88333 2.025 3.825 2.925 2.925C3.825 2.025 4.88333 1.3125 6.1 0.7875C7.31667 0.2625 8.61667 0 10 0C11.0833 0 12.1083 0.158333 13.075 0.475C14.0417 0.791667 14.9333 1.23333 15.75 1.8L14.3 3.275C13.6667 2.875 12.9917 2.5625 12.275 2.3375C11.5583 2.1125 10.8 2 10 2C7.78333 2 5.89583 2.77917 4.3375 4.3375C2.77917 5.89583 2 7.78333 2 10C2 12.2167 2.77917 14.1042 4.3375 15.6625C5.89583 17.2208 7.78333 18 10 18C10.5333 18 11.05 17.95 11.55 17.85C12.05 17.75 12.5333 17.6083 13 17.425L14.5 18.95C13.8167 19.2833 13.1 19.5417 12.35 19.725C11.6 19.9083 10.8167 20 10 20ZM17 18V15H14V13H17V10H19V13H22V15H19V18H17ZM8.6 14.6L4.35 10.35L5.75 8.95L8.6 11.8L18.6 1.775L20 3.175L8.6 14.6Z" fill="#0052CC"/>
</svg>
