<svg width="12" height="15" viewBox="0 0 12 15" fill="none" xmlns="http://www.w3.org/2000/svg">
<rect width="12" height="15" fill="#1E1E1E"/>
<rect width="1280" height="1024" transform="translate(-456 -856)" fill="#F9F9FF"/>
<rect width="1280" height="1024" transform="translate(-456 -856)" fill="url(#paint0_radial_0_1)"/>
<g filter="url(#filter0_d_0_1)">
<g clip-path="url(#clip0_0_1)">
<rect x="-24" y="-652" width="672" height="696" rx="8" fill="white"/>
<rect width="672" height="68" transform="translate(-24 -24)" fill="#F1F3FF"/>
<path d="M5.625 15C5.2125 15 4.85938 14.8531 4.56563 14.5594C4.27188 14.2656 4.125 13.9125 4.125 13.5H7.125C7.125 13.9125 6.97812 14.2656 6.68437 14.5594C6.39062 14.8531 6.0375 15 5.625 15ZM2.625 12.75V11.25H8.625V12.75H2.625ZM2.8125 10.5C1.95 9.9875 1.26562 9.3 0.759375 8.4375C0.253125 7.575 0 6.6375 0 5.625C0 4.0625 0.546875 2.73438 1.64062 1.64062C2.73438 0.546875 4.0625 0 5.625 0C7.1875 0 8.51562 0.546875 9.60938 1.64062C10.7031 2.73438 11.25 4.0625 11.25 5.625C11.25 6.6375 10.9969 7.575 10.4906 8.4375C9.98438 9.3 9.3 9.9875 8.4375 10.5H2.8125ZM3.2625 9H7.9875C8.55 8.6 8.98437 8.10625 9.29062 7.51875C9.59687 6.93125 9.75 6.3 9.75 5.625C9.75 4.475 9.35 3.5 8.55 2.7C7.75 1.9 6.775 1.5 5.625 1.5C4.475 1.5 3.5 1.9 2.7 2.7C1.9 3.5 1.5 4.475 1.5 5.625C1.5 6.3 1.65313 6.93125 1.95938 7.51875C2.26563 8.10625 2.7 8.6 3.2625 9Z" fill="#4F5F7B"/>
</g>
</g>
<defs>
<filter id="filter0_d_0_1" x="-26" y="-653" width="676" height="700" filterUnits="userSpaceOnUse" color-interpolation-filters="sRGB">
<feFlood flood-opacity="0" result="BackgroundImageFix"/>
<feColorMatrix in="SourceAlpha" type="matrix" values="0 0 0 0 0 0 0 0 0 0 0 0 0 0 0 0 0 0 127 0" result="hardAlpha"/>
<feOffset dy="1"/>
<feGaussianBlur stdDeviation="1"/>
<feComposite in2="hardAlpha" operator="out"/>
<feColorMatrix type="matrix" values="0 0 0 0 0 0 0 0 0 0 0 0 0 0 0 0 0 0 0.05 0"/>
<feBlend mode="normal" in2="BackgroundImageFix" result="effect1_dropShadow_0_1"/>
<feBlend mode="normal" in="SourceGraphic" in2="effect1_dropShadow_0_1" result="shape"/>
</filter>
<radialGradient id="paint0_radial_0_1" cx="0" cy="0" r="1" gradientUnits="userSpaceOnUse" gradientTransform="translate(-55360 -44288) scale(1697.06 1357.64)">
<stop offset="0.0117851" stop-color="#D7E2FF"/>
<stop offset="0.0117851" stop-color="#D7E2FF" stop-opacity="0"/>
</radialGradient>
<clipPath id="clip0_0_1">
<rect x="-24" y="-652" width="672" height="696" rx="8" fill="white"/>
</clipPath>
</defs>
</svg>
